<?xml version="1.0" standalone="no"?>
<!DOCTYPE svg PUBLIC "-//W3C//DTD SVG 20010904//EN"
 "http://www.w3.org/TR/2001/REC-SVG-20010904/DTD/svg10.dtd">
<svg version="1.0" xmlns="http://www.w3.org/2000/svg"
 width="512.000000pt" height="512.000000pt" viewBox="0 0 512.000000 512.000000"
 preserveAspectRatio="xMidYMid meet">

<g transform="translate(0.000000,512.000000) scale(0.100000,-0.100000)"
fill="#000000" stroke="none">
<path d="M2365 4834 c-739 -77 -1367 -465 -1747 -1080 -156 -252 -262 -542
-314 -859 -26 -155 -26 -515 0 -670 52 -317 158 -607 314 -859 356 -575 933
-956 1612 -1063 158 -25 509 -25 665 0 487 78 907 285 1254 622 378 367 618
853 680 1380 14 119 6 471 -14 595 -107 672 -489 1248 -1061 1602 -248 153
-520 254 -829 309 -116 20 -453 34 -560 23z"/>
</g>
</svg>
